<?xml version="1.0" encoding="UTF-8" standalone="no"?>
<!DOCTYPE svg PUBLIC "-//W3C//DTD SVG 1.1//EN" "http://www.w3.org/Graphics/SVG/1.1/DTD/svg11.dtd">
<svg width="11.2" height="31" 
  xmlns="http://www.w3.org/2000/svg" 
  xmlns:xlink="http://www.w3.org/1999/xlink" version="1.1">
  <path transform="translate(0,15)" d="M2.579527559055118,1.2566929133858267l-1.6204724409448819,-1.984251968503937s-0.3307086614173228,-0.3307086614173228,-0.3307086614173228,-0.7937007874015748c0,-0.26456692913385826,0.13228346456692913,-0.6283464566929133,0.462992125984252,-0.9590551181102362c1.4881889763779528,-1.5543307086614173,1.984251968503937,-2.9763779527559056,1.984251968503937,-4.2c0,-2.3811023622047243,-1.8850393700787402,-4.067716535433071,-2.017322834645669,-4.431496062992126c-0.09921259842519685,-0.1984251968503937,-0.13228346456692913,-0.3637795275590551,-0.13228346456692913,-0.5291338582677165c0,-0.462992125984252,0.3307086614173228,-0.694488188976378,0.6614173228346456,-0.694488188976378c0.1984251968503937,0,0.42992125984251967,0.09921259842519685,0.5952755905511811,0.26456692913385826c0.5622047244094488,0.5622047244094488,5.456692913385827,6.38267716535433,5.456692913385827,6.38267716535433s0.13228346456692913,0.29763779527559053,0.13228346456692913,0.6283464566929133c0,0.1653543307086614,-0.03307086614173228,0.3307086614173228,-0.13228346456692913,0.49606299212598426c-0.8598425196850393,1.3559055118110237,-2.0503937007874016,2.943307086614173,-2.1826771653543307,4.861417322834646c0,0.13228346456692913,-0.03307086614173228,0.29763779527559053,-0.03307086614173228,0.42992125984251967c0,1.851968503937008,1.0251968503937008,3.075590551181102,2.2818897637795277,4.596850393700787c0.3637795275590551,0.3968503937007874,1.2236220472440944,1.4881889763779528,1.2236220472440944,1.8850393700787402c0,0.09921259842519685,-0.06614173228346457,0.13228346456692913,-0.1653543307086614,0.13228346456692913c-0.06614173228346457,0,-0.13228346456692913,0,-0.231496062992126,-0.03307086614173228c-0.03307086614173228,0,-0.06614173228346457,-0.03307086614173228,-0.09921259842519685,-0.03307086614173228c-0.5291338582677165,-0.1984251968503937,-1.6204724409448819,-0.5622047244094488,-2.579527559055118,-0.5622047244094488c-0.1984251968503937,0,-0.3637795275590551,0,-0.5291338582677165,0.03307086614173228c-1.058267716535433,0.1984251968503937,-1.5543307086614173,1.3559055118110237,-1.5543307086614173,2.3811023622047243c0,0.29763779527559053,0.03307086614173228,0.5952755905511811,0.13228346456692913,0.8598425196850393c0.06614173228346457,0.29763779527559053,0.42992125984251967,1.1905511811023621,0.8598425196850393,1.1905511811023621c0.26456692913385826,0.231496062992126,0.5291338582677165,0.49606299212598426,0.5291338582677165,0.7937007874015748c0,0.06614173228346457,-0.03307086614173228,0.13228346456692913,-0.06614173228346457,0.231496062992126c-0.03307086614173228,0.13228346456692913,-0.26456692913385826,0.1984251968503937,-0.49606299212598426,0.1984251968503937c-0.26456692913385826,0,-0.5952755905511811,-0.09921259842519685,-0.8598425196850393,-0.29763779527559053c-2.4141732283464568,-1.851968503937008,-3.836220472440945,-3.47244094488189,-3.836220472440945,-5.125984251968504c0,-1.752755905511811,1.289763779527559,-3.174803149606299,2.7118110236220474,-3.174803149606299c0.1653543307086614,0,0.3637795275590551,0.09921259842519685,0.5291338582677165,0.09921259842519685c0.13228346456692913,0.03307086614173228,0.3968503937007874,0.09921259842519685,0.5291338582677165,0.09921259842519685c0.1653543307086614,0,0.29763779527559053,-0.03307086614173228,0.3637795275590551,-0.1653543307086614c0.03307086614173228,-0.03307086614173228,0.03307086614173228,-0.09921259842519685,0.03307086614173228,-0.13228346456692913c0,-0.06614173228346457,-0.13228346456692913,-0.3307086614173228,-0.1984251968503937,-0.462992125984252c-0.42992125984251967,-0.694488188976378,-0.8929133858267716,-1.3228346456692912,-1.4220472440944882,-1.984251968503937z"></path>
</svg>