<?xml version="1.0" encoding="UTF-8" standalone="no"?>
<!DOCTYPE svg PUBLIC "-//W3C//DTD SVG 1.1//EN" "http://www.w3.org/Graphics/SVG/1.1/DTD/svg11.dtd">
<svg width="17.47" height="10.4" 
  xmlns="http://www.w3.org/2000/svg" 
  xmlns:xlink="http://www.w3.org/1999/xlink" version="1.1">
  <path transform="translate(0,4.133858267716535)" d="M7.143307086614173,-4.133858267716535c3.075590551181102,0,6.8125984251968505,1.7196850393700787,6.8125984251968505,4.067716535433071c0,2.3149606299212597,-1.7196850393700787,4.2,-7.143307086614173,4.2c-4.9275590551181105,0,-6.8125984251968505,-1.984251968503937,-6.8125984251968505,-4.2c0,-2.248818897637795,2.7448818897637794,-4.067716535433071,7.143307086614173,-4.067716535433071zM3.6708661417322834,-2.0834645669291336c-0.06614173228346457,0.26456692913385826,-0.09921259842519685,0.5291338582677165,-0.09921259842519685,0.7937007874015748c0,1.058267716535433,0.49606299212598426,2.1826771653543307,1.1574803149606299,2.943307086614173c0.1984251968503937,0.26456692913385826,0.42992125984251967,0.49606299212598426,0.694488188976378,0.7275590551181103c0.462992125984252,0.3968503937007874,0.9921259842519685,0.694488188976378,1.5543307086614173,0.8598425196850393c0.29763779527559053,0.09921259842519685,0.5622047244094488,0.13228346456692913,0.8598425196850393,0.13228346456692913c0.3307086614173228,0,0.694488188976378,-0.03307086614173228,1.0251968503937008,-0.13228346456692913c0.8267716535433071,-0.1984251968503937,1.289763779527559,-0.7606299212598425,1.4551181102362205,-1.5874015748031496c0.03307086614173228,-0.1984251968503937,0.06614173228346457,-0.3968503937007874,0.06614173228346457,-0.6283464566929133c0,-1.984251968503937,-1.8188976377952755,-4.431496062992126,-4.100787401574803,-4.431496062992126c-1.0251968503937008,0,-2.248818897637795,0.1653543307086614,-2.6125984251968504,1.3228346456692912z"></path>
</svg>