<?xml version="1.0" encoding="UTF-8" standalone="no"?>
<!DOCTYPE svg PUBLIC "-//W3C//DTD SVG 1.1//EN" "http://www.w3.org/Graphics/SVG/1.1/DTD/svg11.dtd">
<svg width="12.25" height="10.4" 
  xmlns="http://www.w3.org/2000/svg" 
  xmlns:xlink="http://www.w3.org/1999/xlink" version="1.1">
  <path transform="translate(0,4.133858267716535)" d="M3.2078740157480317,4.133858267716535c-1.8188976377952755,0,-3.2078740157480317,-0.9921259842519685,-3.2078740157480317,-2.7448818897637794c0,-1.7196850393700787,1.5543307086614173,-5.522834645669291,6.481889763779527,-5.522834645669291c1.9181102362204725,0,3.274015748031496,1.058267716535433,3.274015748031496,2.7448818897637794c0,1.0913385826771653,-1.0913385826771653,5.522834645669291,-6.548031496062992,5.522834645669291zM5.721259842519685,1.521259842519685c2.3149606299212597,-1.521259842519685,3.0094488188976376,-2.3149606299212597,3.0094488188976376,-2.9763779527559056c0,-0.231496062992126,-0.09921259842519685,-0.42992125984251967,-0.1984251968503937,-0.6283464566929133c-0.231496062992126,-0.3968503937007874,-0.5952755905511811,-0.694488188976378,-1.2236220472440944,-0.694488188976378c-0.6614173228346456,0,-1.6866141732283464,0.3307086614173228,-3.3401574803149607,1.289763779527559c-2.2818897637795277,1.3228346456692912,-3.0094488188976376,2.215748031496063,-3.0094488188976376,2.943307086614173c0,0.231496062992126,0.09921259842519685,0.462992125984252,0.1984251968503937,0.6614173228346456c0.231496062992126,0.3968503937007874,0.6283464566929133,0.7606299212598425,1.3228346456692912,0.7606299212598425c0.7275590551181103,0,1.752755905511811,-0.3637795275590551,3.2409448818897637,-1.3559055118110237z"></path>
</svg>